<svg viewBox="0 0 45.02 45.02" xmlns="http://www.w3.org/2000/svg"><path d="m0 0h45.02v45.02h-45.02z" fill="#161f20"/><path d="m32 14.74v14.06a.64.64 0 0 1 -.17.43.6.6 0 0 1 -.43.17h-9.76a.6.6 0 0 1 -.49-.94l4.87-7 4.88-7a.6.6 0 0 1 1.09.34z" fill="#00a259"/><path d="m15.22 12.13v9.78a.56.56 0 0 1 -.18.42.6.6 0 0 1 -.42.18h-5.62a.6.6 0 0 1 -.52-.9l2.83-4.89 2.83-4.89a.6.6 0 0 1 1.12.3z" fill="#5fb157"/><path d="m28.56 30.79h-10.82c-1.12 0-1.33.27-1 1.33a5.41 5.41 0 0 0 5.26 4.11c4.42 0 8.85.05 13.27 0a5.44 5.44 0 0 0 5.32-4.23c.23-.89 0-1.21-.93-1.21z" fill="#00a259"/><path d="m22.51 23.89h-16a.62.62 0 0 0 -.6.6 4.88 4.88 0 0 0 4.88 4.88h7.92l1.9-2.74z" fill="#5fb157"/><path d="m25.78 19.17-4.05-5.83-4-5.84a.59.59 0 0 0 -.73-.23.6.6 0 0 0 -.42.58v14.06a.6.6 0 0 0 .17.42.6.6 0 0 0 .43.18h6.27l1.15-1.67z" fill="#5fb157"/><path d="m35.79 36.27h-14.33a4.88 4.88 0 0 1 -4.88-4.89.63.63 0 0 1 .17-.42.6.6 0 0 1 .43-.18h22.89a.62.62 0 0 1 .6.6 4.88 4.88 0 0 1 -4.88 4.89z" fill="#00a259"/></svg>